<?xml version="1.0" encoding="windows-1252"?>
<!-- Generator: Adobe Illustrator 20.1.0, SVG Export Plug-In . SVG Version: 6.00 Build 0)  -->
<svg xmlns="http://www.w3.org/2000/svg" xmlns:xlink="http://www.w3.org/1999/xlink" version="1.1" id="&#1057;&#1083;&#1086;&#1081;_1" x="0px" y="0px" viewBox="0 0 64 64" style="enable-background:new 0 0 64 64;" xml:space="preserve">
<linearGradient id="SVGID_1__44024" gradientUnits="userSpaceOnUse" x1="32" y1="5.3333" x2="32" y2="59.8667" spreadMethod="reflect">
	<stop offset="0" style="stop-color:#1A6DFF"/>
	<stop offset="1" style="stop-color:#C822FF"/>
</linearGradient>
<path style="fill:url(#SVGID_1__44024);" d="M32,58C17.663,58,6,46.337,6,32S17.663,6,32,6s26,11.663,26,26S46.337,58,32,58z M32,8  C18.767,8,8,18.767,8,32s10.767,24,24,24s24-10.767,24-24S45.233,8,32,8z"/>
<linearGradient id="SVGID_2__44024" gradientUnits="userSpaceOnUse" x1="32" y1="5.3333" x2="32" y2="59.8667" spreadMethod="reflect">
	<stop offset="0" style="stop-color:#1A6DFF"/>
	<stop offset="1" style="stop-color:#C822FF"/>
</linearGradient>
<path style="fill:url(#SVGID_2__44024);" d="M32,52c-11.028,0-20-8.972-20-20s8.972-20,20-20s20,8.972,20,20S43.028,52,32,52z M32,14  c-9.925,0-18,8.075-18,18s8.075,18,18,18s18-8.075,18-18S41.925,14,32,14z"/>
<linearGradient id="SVGID_3__44024" gradientUnits="userSpaceOnUse" x1="32" y1="21.5" x2="32" y2="26.3362" spreadMethod="reflect">
	<stop offset="0" style="stop-color:#6DC7FF"/>
	<stop offset="1" style="stop-color:#E6ABFF"/>
</linearGradient>
<path style="fill:url(#SVGID_3__44024);" d="M42,25c0,0.552-0.448,1-1,1H23c-0.552,0-1-0.448-1-1v-2c0-0.552,0.448-1,1-1h18  c0.552,0,1,0.448,1,1V25z"/>
<linearGradient id="SVGID_4__44024" gradientUnits="userSpaceOnUse" x1="32" y1="29.3333" x2="32" y2="34.5" spreadMethod="reflect">
	<stop offset="0" style="stop-color:#6DC7FF"/>
	<stop offset="1" style="stop-color:#E6ABFF"/>
</linearGradient>
<path style="fill:url(#SVGID_4__44024);" d="M42,33c0,0.552-0.448,1-1,1H23c-0.552,0-1-0.448-1-1v-2c0-0.552,0.448-1,1-1h18  c0.552,0,1,0.448,1,1V33z"/>
<linearGradient id="SVGID_5__44024" gradientUnits="userSpaceOnUse" x1="32" y1="37" x2="32" y2="41.3365" spreadMethod="reflect">
	<stop offset="0" style="stop-color:#6DC7FF"/>
	<stop offset="1" style="stop-color:#E6ABFF"/>
</linearGradient>
<path style="fill:url(#SVGID_5__44024);" d="M42,41c0,0.552-0.448,1-1,1H23c-0.552,0-1-0.448-1-1v-2c0-0.552,0.448-1,1-1h18  c0.552,0,1,0.448,1,1V41z"/>
</svg>